<?xml version="1.0" standalone="no"?>
<!DOCTYPE svg PUBLIC "-//W3C//DTD SVG 20010904//EN"
 "http://www.w3.org/TR/2001/REC-SVG-20010904/DTD/svg10.dtd">
<svg version="1.0" xmlns="http://www.w3.org/2000/svg"
 width="680.000000pt" height="680.000000pt" viewBox="0 0 680.000000 680.000000"
 preserveAspectRatio="xMidYMid meet">
<metadata>
Created by potrace 1.14, written by Peter Selinger 2001-2017
</metadata>
<g transform="translate(0.000000,680.000000) scale(0.100000,-0.100000)"
fill="#000000" stroke="none">
<path d="M3993 6196 c-61 -30 -223 -122 -359 -204 -253 -151 -411 -240 -789
-440 -230 -122 -360 -181 -505 -231 -144 -50 -148 -52 -154 -67 -3 -8 -1 -58
4 -112 5 -53 14 -166 20 -249 l11 -153 -114 -137 c-227 -275 -405 -523 -532
-739 -60 -102 -60 -102 -104 -107 -89 -10 -132 -76 -157 -239 -26 -170 -3
-385 70 -668 l35 -134 -43 -121 c-128 -352 -154 -693 -66 -865 32 -62 110
-127 176 -145 33 -9 64 -18 70 -20 15 -5 25 -152 33 -490 7 -342 4 -331 106
-365 135 -45 207 -51 655 -57 453 -5 683 3 1095 38 l252 22 22 -22 c26 -26 32
-26 64 -1 15 12 40 20 63 20 20 0 45 6 53 14 9 7 49 21 89 31 55 13 107 38
215 102 78 47 221 130 317 186 305 176 653 407 703 467 15 18 28 48 31 73 3
23 7 413 10 867 5 790 -3 1391 -24 1773 l-10 178 49 62 c26 34 56 76 65 94 18
35 22 124 6 152 -5 10 -14 49 -20 87 -14 85 -54 159 -157 291 -116 148 -159
195 -273 296 -58 50 -142 127 -187 169 -46 43 -101 88 -123 100 -34 19 -40 28
-40 56 0 47 -50 151 -134 277 -123 184 -208 265 -279 265 -21 0 -76 -21 -144
-54z m193 -57 c50 -40 101 -101 170 -207 54 -81 120 -209 113 -217 -2 -2 -67
-27 -144 -55 -167 -62 -407 -179 -758 -368 -141 -76 -301 -156 -355 -177 -139
-55 -675 -325 -751 -378 l-65 -46 -28 20 c-31 23 -34 35 -13 63 21 28 2 59
-34 54 l-28 -4 -12 189 c-7 103 -11 191 -8 194 3 3 41 18 84 33 262 92 864
407 1398 732 155 94 351 197 376 198 9 0 34 -14 55 -31z m169 -558 c-11 -18
-144 -102 -207 -130 -86 -39 -320 -123 -325 -117 -9 9 497 250 535 256 2 0 1
-4 -3 -9z m824 -1911 c12 -461 4 -2074 -10 -2102 -18 -35 -380 -277 -619 -415
-63 -36 -205 -119 -315 -184 -110 -64 -224 -124 -252 -133 l-53 -15 0 112 c0
84 5 124 19 162 10 28 29 91 42 141 l23 92 27 -37 c44 -62 110 -84 260 -89
119 -4 128 -3 148 17 28 28 28 75 0 95 -23 16 -47 11 -65 -12 -9 -12 -29 -14
-102 -9 -171 11 -208 54 -178 211 19 99 94 250 269 541 139 232 197 339 197
363 0 31 -29 62 -59 62 -58 0 -182 -139 -280 -316 -83 -148 -149 -308 -222
-533 -81 -249 -80 -247 -74 -181 17 168 178 904 236 1070 24 71 78 205 184
455 146 346 225 567 225 632 0 30 -34 57 -64 49 -30 -7 -56 -59 -130 -256 -30
-80 -84 -224 -121 -320 -36 -96 -82 -229 -101 -295 -28 -95 -113 -360 -214
-665 -5 -14 -9 264 -9 623 -1 588 0 647 15 647 9 0 42 13 73 30 31 16 88 40
127 53 85 29 150 72 201 132 20 25 98 87 172 139 75 53 174 126 221 163 99 79
288 267 357 354 l48 62 7 -114 c3 -63 11 -301 17 -529z m-389 366 c0 -2 -8
-10 -17 -17 -16 -13 -17 -12 -4 4 13 16 21 21 21 13z m-3340 -386 c-17 -32 -8
-71 23 -94 25 -18 44 -21 195 -24 145 -3 182 -7 282 -32 135 -34 353 -73 533
-95 104 -13 206 -15 540 -11 227 3 508 8 625 12 l212 7 0 -859 c0 -1037 1
-1016 -96 -1317 -25 -75 -49 -135 -53 -133 -18 11 -70 136 -85 203 -9 40 -16
117 -16 174 0 93 4 113 44 239 25 76 51 166 57 199 12 58 12 62 -9 83 -18 18
-25 20 -46 10 -45 -20 -107 -179 -130 -334 -8 -51 -30 -134 -49 -184 -35 -90
-113 -254 -122 -254 -30 0 -46 176 -35 368 7 118 15 166 40 246 38 123 39 162
6 178 -53 24 -76 -15 -108 -177 -26 -136 -49 -204 -122 -364 -86 -190 -178
-325 -258 -382 -27 -19 -30 -20 -53 -5 -13 8 -34 41 -46 73 -21 52 -24 74 -23
208 0 170 21 303 80 519 70 254 119 379 335 849 142 308 189 426 189 476 0 62
-37 78 -97 42 -103 -63 -471 -495 -642 -754 -25 -37 -46 -65 -48 -64 -1 2 31
100 73 218 125 353 148 465 103 510 -21 21 -48 19 -78 -5 -24 -18 -174 -252
-271 -422 -110 -193 -212 -392 -297 -579 -34 -77 -63 -135 -63 -130 0 6 4 48
10 95 30 267 40 666 20 815 -19 148 -63 248 -129 292 -71 48 -128 38 -214 -37
-49 -43 -159 -202 -217 -311 l-38 -72 -30 129 c-56 233 -71 412 -49 550 15 91
41 164 58 164 6 0 5 -9 -1 -20z m170 -16 l45 -25 -62 4 c-69 4 -76 7 -67 31 8
22 31 20 84 -10z m1641 -512 c-17 -45 -82 -197 -144 -339 -176 -398 -210 -483
-280 -698 -102 -313 -145 -557 -134 -765 10 -181 37 -257 108 -292 97 -49 227
70 353 325 l53 108 7 -82 c9 -96 37 -195 67 -233 49 -63 117 -18 188 124 41
82 42 82 56 10 28 -141 148 -320 215 -320 20 0 50 40 50 67 0 15 5 42 12 60
l12 33 13 -42 c7 -24 13 -88 13 -143 l0 -100 -40 -22 c-30 -18 -55 -23 -108
-23 -37 0 -165 -9 -283 -20 -117 -10 -302 -24 -411 -30 -254 -13 -880 -13
-1028 1 -146 13 -287 45 -299 67 -5 10 -11 152 -15 317 -4 165 -9 330 -12 366
l-6 65 42 17 c31 12 41 21 38 34 -3 14 -12 17 -44 16 l-40 -3 -13 198 c-24
383 -61 658 -116 850 l-16 52 60 118 c88 172 186 311 239 340 38 21 46 23 73
12 34 -14 78 -92 97 -170 42 -177 37 -537 -14 -1070 -14 -141 -23 -185 -59
-301 -79 -245 -125 -469 -109 -522 16 -55 65 -74 98 -38 27 30 53 119 65 221
29 246 53 381 79 460 71 208 223 554 348 790 132 252 279 498 290 488 6 -7
-35 -144 -117 -383 -39 -115 -104 -309 -144 -430 -40 -121 -97 -283 -128 -360
-117 -296 -176 -497 -193 -657 -8 -79 9 -118 51 -118 36 0 51 31 80 165 33
154 95 392 146 564 99 331 365 760 743 1198 89 104 175 188 183 179 2 -2 -10
-40 -26 -84z m-1777 -689 c14 -76 32 -205 41 -288 18 -183 39 -495 33 -500 -2
-3 -21 1 -42 7 -55 17 -131 105 -153 176 -24 75 -23 300 0 427 21 113 77 315
87 315 4 0 19 -62 34 -137z m2841 -293 c-9 -16 -18 -30 -21 -30 -2 0 2 14 11
30 9 17 18 30 21 30 2 0 -2 -13 -11 -30z"/>
<path d="M3484 2580 c-46 -10 -54 -18 -54 -50 0 -31 9 -36 75 -42 66 -6 70
-100 8 -169 -72 -79 -118 -33 -111 110 3 70 2 76 -17 76 -31 0 -50 -50 -49
-130 0 -83 23 -139 68 -166 61 -37 117 -20 185 57 64 73 79 161 41 240 -31 63
-82 89 -146 74z"/>
</g>
</svg>
